<svg width="359" height="73" viewBox="0 0 359 73" fill="none" xmlns="http://www.w3.org/2000/svg">
<path d="M108 44.36C109.76 54.04 117.76 59.72 129.52 59.72C140.24 59.72 148.72 53.96 148.72 43.88C148.72 36.28 144.08 31.72 135.68 29.72L126.08 27.48C123.52 26.92 122 25.72 122 23.56C122 20.84 124.48 19.24 128.16 19.24C132.4 19.24 134.64 21.32 135.68 24.04H148.24C146.88 15.56 140.08 9 128.08 9C117.2 9 109.2 15.32 109.2 24.92C109.2 33.24 114.64 37 121.84 38.6L131.28 40.6C134.4 41.32 135.92 42.36 135.92 44.68C135.92 47.72 133.2 49.4 129.28 49.4C125.28 49.4 122.4 47.72 121.36 44.36H108Z" fill="#212C4F"/>
<path d="M156.399 46.52C156.399 55.64 161.199 59.64 169.679 59.64C172.479 59.64 175.199 59.16 176.639 58.52V47.88C175.519 48.36 173.999 48.68 172.639 48.68C170.159 48.68 168.799 47.48 168.799 44.68V32.68H176.319V22.92H168.799V13H156.399V22.92H151.119V32.68H156.399V46.52Z" fill="#212C4F"/>
<path d="M206.591 22.76C206.031 22.44 204.751 22.12 203.151 22.12C199.551 22.12 196.751 23.72 194.991 26.12V22.92H182.431V58.92H194.991V37.8C195.631 35.24 197.951 33.72 201.391 33.72C203.391 33.72 205.071 34.04 206.591 34.84V22.76Z" fill="#212C4F"/>
<path d="M246.061 40.92C246.061 29.8 238.621 22.12 227.661 22.12C216.781 22.12 209.261 29.8 209.261 40.92C209.261 52.04 216.781 59.72 227.661 59.72C238.621 59.72 246.061 52.04 246.061 40.92ZM233.741 40.92C233.741 45.88 231.581 49.32 227.661 49.32C223.821 49.32 221.661 45.88 221.661 40.92C221.661 35.96 223.821 32.44 227.661 32.44C231.581 32.44 233.741 35.96 233.741 40.92Z" fill="#212C4F"/>
<path d="M250.947 58.92H263.507V37.16C264.147 34.68 266.227 33.24 268.707 33.24C271.907 33.24 273.427 35.4 273.427 38.36V58.92H285.907V35.32C285.907 27.32 281.187 22.12 273.187 22.12C269.027 22.12 265.507 23.8 263.507 26.04V22.92H250.947V58.92Z" fill="#212C4F"/>
<path d="M314.991 56.44C314.991 61.16 312.591 63.24 308.671 63.24C305.631 63.24 303.711 61.96 302.991 59.4H290.911C292.191 67.72 299.071 72.44 308.671 72.44C319.631 72.44 327.391 66.36 327.391 53.72V22.92H314.991V25.64C313.391 23.72 310.431 22.12 306.431 22.12C296.351 22.12 290.511 29.88 290.511 39.72C290.511 49.64 296.351 57.4 306.431 57.4C310.431 57.4 313.391 55.72 314.991 53.88V56.44ZM314.991 44.36C314.031 46.04 312.031 47.4 309.551 47.4C305.391 47.4 302.911 44.28 302.911 39.72C302.911 35.24 305.391 32.04 309.551 32.04C312.031 32.04 314.031 33.48 314.991 35.08V44.36Z" fill="#212C4F"/>
<path d="M358.31 22.76C357.75 22.44 356.47 22.12 354.87 22.12C351.27 22.12 348.47 23.72 346.71 26.12V22.92H334.15V58.92H346.71V37.8C347.35 35.24 349.67 33.72 353.11 33.72C355.11 33.72 356.79 34.04 358.31 34.84V22.76Z" fill="#212C4F"/>
<path d="M75.0077 18.5588C76.453 18.9761 76.453 21.0239 75.0077 21.4412L21.916 36.7674C20.9569 37.0443 20 36.3245 20 35.3262V4.67376C20 3.67548 20.9569 2.95573 21.916 3.2326L75.0077 18.5588Z" fill="#A6E1D5"/>
<path d="M4.9923 51.4412C3.547 51.0239 3.547 48.9761 4.9923 48.5588L58.084 33.2326C59.0431 32.9557 60 33.6755 60 34.6738V65.3262C60 66.3245 59.0431 67.0443 58.084 66.7674L4.9923 51.4412Z" fill="#A6E1D5"/>
</svg>
